<svg width="24" height="24" viewBox="0 0 24 24" fill="none" xmlns="http://www.w3.org/2000/svg">
<path d="M11.9734 14.9166C11.8234 14.9155 11.6766 14.8728 11.5492 14.7933L0.498037 8.17717C0.372911 8.10421 0.269055 7.99952 0.196861 7.87357C0.124668 7.74762 0.0866699 7.60483 0.0866699 7.45949C0.0866699 7.31416 0.124668 7.17137 0.196861 7.04542C0.269055 6.91947 0.372911 6.81477 0.498037 6.74181L11.5492 0.125731C11.6756 0.0436592 11.8229 0 11.9734 0C12.1239 0 12.2712 0.0436592 12.3976 0.125731L23.4487 6.74181C23.5739 6.81477 23.6777 6.91947 23.7499 7.04542C23.8221 7.17137 23.8601 7.31416 23.8601 7.45949C23.8601 7.60483 23.8221 7.74762 23.7499 7.87357C23.6777 7.99952 23.5739 8.10421 23.4487 8.17717L12.3976 14.7933C12.2702 14.8728 12.1234 14.9155 11.9734 14.9166V14.9166ZM2.56315 7.51556L11.9734 13.1224L21.3836 7.51556L11.9734 1.819L2.56315 7.51556Z" fill="#1D1D1F"/>
<path d="M11.973 19.5149C11.819 19.5178 11.6675 19.4749 11.5377 19.3915L0.374901 12.6633C0.194341 12.5432 0.0671504 12.3574 0.0200452 12.145C-0.02706 11.9327 0.00958548 11.7103 0.122285 11.5245C0.234984 11.3387 0.414967 11.204 0.62443 11.1487C0.833894 11.0934 1.05654 11.1218 1.2456 11.2279L11.973 17.6982L22.7005 11.2279C22.8895 11.1218 23.1122 11.0934 23.3216 11.1487C23.5311 11.204 23.7111 11.3387 23.8238 11.5245C23.9365 11.7103 23.9731 11.9327 23.926 12.145C23.8789 12.3574 23.7517 12.5432 23.5712 12.6633L12.4084 19.3915C12.2786 19.4749 12.1271 19.5178 11.973 19.5149V19.5149Z" fill="#1D1D1F"/>
<path d="M11.973 24C11.819 24.0029 11.6675 23.96 11.5377 23.8767L0.374901 17.1485C0.194341 17.0283 0.0671504 16.8426 0.0200452 16.6302C-0.02706 16.4178 0.00958548 16.1954 0.122285 16.0096C0.234984 15.8238 0.414967 15.6892 0.624431 15.6339C0.833894 15.5786 1.05654 15.607 1.2456 15.7131L11.973 22.1834L22.7005 15.7131C22.7944 15.6506 22.8998 15.6078 23.0105 15.5873C23.1213 15.5667 23.235 15.5688 23.3449 15.5934C23.4548 15.618 23.5586 15.6646 23.6502 15.7305C23.7417 15.7963 23.8191 15.88 23.8777 15.9766C23.9363 16.0732 23.9749 16.1807 23.9912 16.2926C24.0075 16.4045 24.0011 16.5186 23.9725 16.628C23.9439 16.7374 23.8936 16.8399 23.8246 16.9293C23.7557 17.0187 23.6695 17.0933 23.5712 17.1485L12.4084 23.8767C12.2786 23.96 12.1271 24.0029 11.973 24V24Z" fill="#1D1D1F"/>
</svg>
