<svg width="301" height="36" viewBox="0 0 301 36" fill="none" xmlns="http://www.w3.org/2000/svg">
<path d="M25.248 2.896L22.08 26.704L18.768 2.032L20.736 0.399998H11.328L13.344 2.032L13.872 6.064L11.136 26.704L7.776 2.032L9.792 0.399998H0.384L2.352 2.032L6.672 34H12.384L14.976 14.272L17.616 34H23.376L27.456 2.896L30.432 0.399998H22.368L25.248 2.896ZM35.9453 2.032V32.368L34.0253 34H46.6493V26.992L44.4893 31.792H41.3213V17.92H42.4733L44.4413 22.336V11.2L42.4253 15.712H41.3213V2.608H44.4893L46.6493 7.408V0.399998H34.0253L35.9453 2.032ZM53.439 2.032V32.368L51.519 34H64.143V26.992L61.983 31.792H58.815V17.92H59.967L61.935 22.336V11.2L59.919 15.712H58.815V2.608H61.983L64.143 7.408V0.399998H51.519L53.439 2.032ZM90.8749 32.368L82.9549 10.192L87.1789 2.896L90.2029 0.399998H82.2349L85.0189 2.896L77.4349 16.048V2.032L79.4029 0.399998H70.0909L72.0589 2.032V32.368L70.0909 34H79.4989L77.4349 32.368V19.696L79.4509 16.24L85.4029 32.368L83.4349 34H92.8429L90.8749 32.368ZM103.177 2.032L105.289 0.399998H95.8815L97.8015 2.032V32.368L95.8815 34H108.505V26.992L106.345 31.792H103.177V2.032ZM130.958 0.399998H122.702L125.678 2.896L122.558 16.336L119.15 2.032L121.214 0.399998H111.71L113.678 2.032L118.19 21.472V32.368L116.222 34H125.678L123.566 32.368V21.472L127.934 2.896L130.958 0.399998ZM148.577 2.032V24.016C148.577 28.768 147.281 33.04 145.457 34.144V34.192C150.257 33.712 153.953 29.584 153.953 24.688V2.032L155.873 0.399998H146.657L148.577 2.032ZM177.214 34.144C186.622 34.144 194.158 26.464 194.158 17.104C194.158 7.936 186.718 0.256 177.214 0.256C167.854 0.256 160.222 7.888 160.222 17.248C160.222 26.56 167.662 34.144 177.214 34.144ZM173.566 30.688C167.758 30.688 163.726 26.704 163.726 20.848C163.726 12.208 172.318 3.664 180.862 3.664C186.67 3.664 190.702 7.744 190.702 13.552C190.702 22.24 182.158 30.688 173.566 30.688ZM209.759 0.399998L212.447 2.896V27.232C212.447 29.392 210.959 30.496 209.231 30.496C207.455 30.496 206.015 29.056 206.015 27.28V2.032L207.839 0.399998H198.815L200.639 2.032V27.424C200.639 31.168 203.759 34.144 207.647 34.144C211.631 34.144 214.655 31.168 214.655 27.376V2.896L217.343 0.399998H209.759ZM229.206 25.168C233.814 24.64 237.702 19.312 237.702 12.832C237.702 5.92 233.43 0.399998 228.486 0.399998H221.094L223.11 1.936V32.368L221.334 34H230.262L228.486 32.368V26.8C232.758 35.2 237.414 34.144 237.414 34.144V26.368C234.438 28.336 231.462 27.088 229.206 25.168ZM228.486 1.84C230.598 1.84 232.278 6.736 232.278 12.832C232.278 18.88 230.598 23.776 228.486 23.776V1.84ZM258.276 2.896V18.304L248.628 0.399998H241.62L244.884 5.584V31.504L242.1 34H249.876L247.092 31.504V8.656L260.484 34.144V2.896L263.268 0.399998H255.492L258.276 2.896ZM272.737 9.472L275.089 24.544H270.529L272.737 9.472ZM271.345 0.399998L271.825 2.032L267.169 32.368L265.345 34H271.153L269.329 32.368L270.193 26.752H275.425L276.289 32.368L274.273 34H283.681L281.713 32.368L276.721 0.399998H271.345ZM294.934 2.032L297.046 0.399998H287.638L289.558 2.032V32.368L287.638 34H300.262V26.992L298.102 31.792H294.934V2.032Z" fill="#1D1D1F"/>
</svg>
