<svg width="16" height="17" viewBox="0 0 16 17" fill="none" xmlns="http://www.w3.org/2000/svg">
<path d="M15.3431 16.9999H0.648781C0.476847 16.9999 0.311955 16.9316 0.190379 16.81C0.0688038 16.6884 0.000503457 16.5235 0.000503457 16.3515V6.65027C-0.00318701 6.55665 0.0134463 6.46335 0.0492583 6.37678C0.0850703 6.2902 0.13921 6.21242 0.207952 6.14878L7.57238 0.148225C7.68612 0.0524928 7.82999 0 7.97864 0C8.12728 0 8.27116 0.0524928 8.38489 0.148225L15.7666 6.14878C15.8401 6.20999 15.8991 6.28669 15.9394 6.37339C15.9798 6.46009 16.0005 6.55464 16 6.65027V16.3515C16 16.4374 15.9829 16.5224 15.9498 16.6016C15.9167 16.6809 15.8682 16.7528 15.8071 16.8131C15.746 16.8734 15.6735 16.921 15.5938 16.9531C15.5142 16.9852 15.4289 17.0011 15.3431 16.9999V16.9999ZM1.27977 15.703H14.6948V6.95289L7.98728 1.48841L1.27977 6.95289V15.703Z" fill="#1D1D1F"/>
</svg>
